<svg width="34" height="41" viewBox="0 0 34 41" fill="none" xmlns="http://www.w3.org/2000/svg">
<path fill-rule="evenodd" clip-rule="evenodd" d="M11.4925 1.83333C12.8717 0.665454 14.8718 0 17 0C19.1282 0 21.1283 0.665454 22.5075 1.83333H24.3333C26.3584 1.83333 28 3.47496 28 5.5H29.8333C31.8584 5.5 33.5 7.14162 33.5 9.16667V36.6667C33.5 38.6917 31.8584 40.3333 29.8333 40.3333H4.16667C2.14162 40.3333 0.5 38.6917 0.5 36.6667V9.16667C0.5 7.14162 2.14162 5.5 4.16667 5.5H6C6 3.47496 7.64162 1.83333 9.66667 1.83333H11.4925ZM24.3333 11C25.6905 11 26.8755 10.2626 27.5095 9.16667H29.8333V36.6667H4.16667V9.16667H6.49053C7.12452 10.2626 8.30948 11 9.66667 11H24.3333ZM13.0722 5.49991L13.6204 4.8681C14.2228 4.17393 15.5138 3.66658 16.9999 3.66658C18.486 3.66658 19.7771 4.17393 20.3794 4.8681L20.9276 5.49991H24.3332V7.33324H9.66658V5.49991H12.2357H13.0722Z" fill="#1B1A1A"/>
</svg>
