<svg width="40" height="40" viewBox="0 0 40 40" fill="none" xmlns="http://www.w3.org/2000/svg">
<path fill-rule="evenodd" clip-rule="evenodd" d="M20 40C8.9543 40 0 31.0457 0 20C0 8.9543 8.9543 0 20 0C31.0457 0 40 8.9543 40 20C40 31.0457 31.0457 40 20 40ZM19.9999 36.3635C29.0373 36.3635 36.3635 29.0373 36.3635 19.9999C36.3635 10.9625 29.0373 3.63624 19.9999 3.63624C10.9625 3.63624 3.63624 10.9625 3.63624 19.9999C3.63624 29.0373 10.9625 36.3635 19.9999 36.3635ZM29.0908 18.1819H21.8181V9.09101H18.1817V21.8183H29.0908V18.1819Z" fill="#1B1A1A"/>
</svg>
