<svg width="40" height="39" viewBox="0 0 40 39" fill="none" xmlns="http://www.w3.org/2000/svg">
<path fill-rule="evenodd" clip-rule="evenodd" d="M20 39C9.23045 39 0.5 30.2696 0.5 19.5C0.5 8.73045 9.23045 0 20 0C30.7696 0 39.5 8.73045 39.5 19.5C39.5 30.2696 30.7696 39 20 39ZM20 35.4546C28.8115 35.4546 35.9546 28.3115 35.9546 19.5C35.9546 10.6886 28.8115 3.54548 20 3.54548C11.1886 3.54548 4.04548 10.6886 4.04548 19.5C4.04548 28.3115 11.1886 35.4546 20 35.4546ZM24.947 24.447L29.8939 9.60625L15.0532 14.5532L10.1062 29.3939L24.947 24.447ZM22.1438 21.6438L15.7118 23.7878L17.8558 17.3558L24.2878 15.2118L22.1438 21.6438Z" fill="#1B1A1A"/>
</svg>
