<svg width="40" height="40" viewBox="0 0 40 40" fill="none" xmlns="http://www.w3.org/2000/svg">
<path fill-rule="evenodd" clip-rule="evenodd" d="M20 40C8.9543 40 0 31.0457 0 20C0 8.9543 8.9543 0 20 0C31.0457 0 40 8.9543 40 20C40 31.0457 31.0457 40 20 40ZM33.4535 29.3175C35.2883 26.6732 36.3635 23.4621 36.3635 19.9999C36.3635 10.9625 29.0373 3.63626 19.9999 3.63626C10.9625 3.63626 3.63626 10.9625 3.63626 19.9999C3.63626 23.4622 4.71155 26.6734 6.5464 29.3176C8.59269 26.6148 13.4011 25.4547 20 25.4547C26.5987 25.4547 31.4071 26.6147 33.4535 29.3175ZM30.8448 32.254C30.3124 30.3407 26.4895 29.091 20 29.091C13.5103 29.091 9.68743 30.3407 9.15515 32.2541C12.0424 34.8112 15.8398 36.3635 19.9999 36.3635C24.16 36.3635 27.9576 34.8111 30.8448 32.254ZM19.9999 9.09093C15.5983 9.09093 12.7272 12.2832 12.7272 16.3637C12.7272 22.5953 15.9288 25.4546 19.9999 25.4546C24.0328 25.4546 27.2726 22.6902 27.2726 16.7273C27.2726 12.5847 24.3894 9.09093 19.9999 9.09093ZM16.3637 16.3636C16.3637 20.4895 17.8514 21.8181 20.0001 21.8181C22.1414 21.8181 23.6365 20.5425 23.6365 16.7272C23.6365 14.4552 22.2104 12.7272 20.0001 12.7272C17.6978 12.7272 16.3637 14.2105 16.3637 16.3636Z" fill="#1B1A1A"/>
</svg>
