<svg width="28" height="41" viewBox="0 0 28 41" fill="none" xmlns="http://www.w3.org/2000/svg">
<path fill-rule="evenodd" clip-rule="evenodd" d="M4 0.428711H24C26.2091 0.428711 28 2.21957 28 4.42871V36.4287C28 38.6379 26.2091 40.4287 24 40.4287H4C1.79086 40.4287 0 38.6379 0 36.4287V4.42871C0 2.21957 1.79086 0.428711 4 0.428711ZM3.99983 4.42874V36.4287H23.9998V4.42874H3.99983ZM15.9999 32.4286C15.9999 33.5332 15.1045 34.4286 13.9999 34.4286C12.8953 34.4286 11.9999 33.5332 11.9999 32.4286C11.9999 31.3241 12.8953 30.4286 13.9999 30.4286C15.1045 30.4286 15.9999 31.3241 15.9999 32.4286Z" fill="#1B1A1A"/>
</svg>
