<svg width="35" height="40" viewBox="0 0 35 40" fill="none" xmlns="http://www.w3.org/2000/svg">
<path fill-rule="evenodd" clip-rule="evenodd" d="M15.4667 5.81891V3.80952H13.5333V0H21.2667V3.80952H19.3333V5.81891C22.6886 6.18434 25.7564 7.48971 28.2593 9.46184L31.4966 6.25839L34.2367 8.94622L30.9938 12.1553C33.3757 15.0882 34.8 18.8088 34.8 22.8571C34.8 32.3249 27.0098 40 17.4 40C7.79024 40 0 32.3249 0 22.8571C0 14.0332 6.76676 6.76643 15.4667 5.81891ZM17.4002 36.1906C24.8744 36.1906 30.9335 30.2211 30.9335 22.8573C30.9335 15.4935 24.8744 9.52393 17.4002 9.52393C9.9259 9.52393 3.86682 15.4935 3.86682 22.8573C3.86682 30.2211 9.9259 36.1906 17.4002 36.1906ZM19.3332 13.3333H15.4666V24.7618H19.3332V13.3333Z" fill="#1B1A1A"/>
</svg>
