<svg width="53" height="25" viewBox="0 0 53 25" fill="none" xmlns="http://www.w3.org/2000/svg">
<path fill-rule="evenodd" clip-rule="evenodd" d="M21.6009 19.2908H31.1991C29.6927 17.2852 28.8 14.7923 28.8 12.0908C28.8 5.4634 34.1726 0.0908203 40.8 0.0908203C47.4274 0.0908203 52.8 5.4634 52.8 12.0908C52.8 18.7182 47.4274 24.0908 40.8 24.0908H12C5.37258 24.0908 0 18.7182 0 12.0908C0 5.4634 5.37258 0.0908203 12 0.0908203C18.6274 0.0908203 24 5.4634 24 12.0908C24 14.7923 23.1073 17.2852 21.6009 19.2908ZM12.0002 19.291C15.9767 19.291 19.2002 16.0675 19.2002 12.091C19.2002 8.11457 15.9767 4.89102 12.0002 4.89102C8.02375 4.89102 4.8002 8.11457 4.8002 12.091C4.8002 16.0675 8.02375 19.291 12.0002 19.291ZM48.0001 12.091C48.0001 16.0675 44.7765 19.291 40.8001 19.291C36.8236 19.291 33.6001 16.0675 33.6001 12.091C33.6001 8.11457 36.8236 4.89102 40.8001 4.89102C44.7765 4.89102 48.0001 8.11457 48.0001 12.091Z" fill="#1B1A1A"/>
</svg>
