<svg width="222" height="212" viewBox="0 0 222 212" fill="none" xmlns="http://www.w3.org/2000/svg">
<g clip-path="url(#clip0)">
<path d="M213.381 48.746C232.774 69.06 213.381 89.385 213.381 119.057C213.381 148.139 175.171 160.992 160.591 186.692C148.742 207.578 113.617 218.775 83.3711 207.578C53.1256 196.435 29.3213 165.588 18.4742 130.375C7.62739 95.1615 0.0176014 44.5002 38.1119 37.6266C70.3465 31.8101 98.2524 10.8374 131.883 14.9962C165.567 19.1549 193.987 28.4854 213.381 48.746Z" fill="#36BDB2" fill-opacity="0.8"/>
<path d="M180.929 34.1086C200.165 54.3457 219.44 80.2767 198.324 104.897C180.929 125.178 175.068 163.924 146.08 179.752C117.093 195.528 81.9778 203.495 51.9779 192.34C21.978 181.239 -4.6447 151.252 0.684118 119.383C6.49654 84.6164 -10.9419 50.204 18.122 34.1085C44.2804 19.6225 66.738 -3.65666 100.094 0.486368C133.505 4.6294 161.693 13.9246 180.929 34.1086Z" fill="#1890FF" fill-opacity="0.8"/>
<path d="M138.431 41.0124V122.536C138.431 136.412 134.783 146.993 127.486 154.278C120.189 161.448 109.938 165.032 96.7341 165.032C82.4875 165.032 71.1944 161.101 62.855 153.237C54.6313 145.374 50.5195 133.926 50.5195 118.893H84.2249C84.2249 129.185 87.8734 134.331 95.1704 134.331C101.309 134.331 104.379 130.399 104.379 122.536V41.0124H138.431Z" fill="white"/>
</g>
<defs>
<clipPath id="clip0">
<rect width="222" height="212" fill="white"/>
</clipPath>
</defs>
</svg>
