<svg width="82" height="79" viewBox="0 0 82 79" fill="none" xmlns="http://www.w3.org/2000/svg">
<path d="M78.8083 18.3767C85.9896 25.9201 78.8084 33.4677 78.8083 44.4864C78.8083 55.2858 64.6595 60.0587 59.261 69.6019C54.8735 77.3579 41.867 81.5157 30.6673 77.3579C19.4675 73.2199 10.6532 61.7652 6.63656 48.689C2.62012 35.6128 -0.197708 16.8001 13.9082 14.2476C25.8443 12.0877 36.1776 4.29962 48.6306 5.84394C61.1035 7.38826 71.6269 10.8531 78.8083 18.3767Z" fill="#36BDB2" fill-opacity="0.8"/>
<path d="M66.5954 12.666C73.6757 20.1809 80.7705 29.8102 72.998 38.9528C66.5954 46.4838 64.438 60.8719 53.7685 66.7497C43.0989 72.6077 30.1739 75.5664 19.1317 71.4243C8.08957 67.302 -1.7096 56.1666 0.251807 44.3321C2.39122 31.4217 -4.02745 18.6429 6.67027 12.666C16.2985 7.28669 24.5646 -1.35788 36.8424 0.180609C49.1398 1.71909 59.5151 5.17083 66.5954 12.666Z" fill="#1890FF" fill-opacity="0.8"/>
</svg>
