<svg width="38" height="28" viewBox="0 0 38 28" fill="none" xmlns="http://www.w3.org/2000/svg">
<path fill-rule="evenodd" clip-rule="evenodd" d="M3.40937 3.40907V18.7499H0V23.8635C0 25.7462 1.52629 27.2725 3.40907 27.2725H25.568H25.5683H34.091C35.9737 27.2725 37.5 25.7462 37.5 23.8635V8.52266C37.5 6.63989 35.9737 5.1136 34.091 5.1136V3.40907C34.091 1.52629 32.5647 0 30.6819 0H6.81843C4.93566 0 3.40937 1.52629 3.40937 3.40907ZM30.6819 5.1136V3.40907H6.81843V18.7499H22.1589V22.1589H3.40907V23.8635H22.1592V8.52266C22.1592 6.63989 23.6855 5.1136 25.5683 5.1136H30.6819ZM25.5681 23.8635V8.52274H34.0908V23.8635H25.5681Z" fill="white"/>
</svg>
