<svg width="526" height="491" viewBox="0 0 526 491" fill="none" xmlns="http://www.w3.org/2000/svg">
<g clip-path="url(#clip0)">
<path d="M150.026 61.8421C167.655 56.8777 185.667 67.448 190.257 85.4514C194.847 103.455 184.277 122.074 166.648 127.038C149.019 132.003 131.007 121.432 126.417 103.429C121.827 85.4255 132.397 66.8065 150.026 61.8421Z" fill="#E1E5F0"/>
<path d="M57.2197 162.038L134.404 269.673L169.321 243.488L123.106 154.7L57.2197 162.038ZM0.319792 76.0672L38.5789 134.049L60.763 67.9946L0.319792 76.0672ZM48.1481 141.065L112.366 137.36L92.8751 60.9821L73.3056 66.4877L48.1481 141.065ZM131.854 151.721L182.286 232.962L206.69 214.054L170.108 148.881L131.854 151.721ZM190.513 146.216L222.702 205.765L256.94 179.307L250.298 137.769L190.513 146.216ZM272.229 200.801L313.694 198.98L315.024 171.822L266.217 176.562L272.229 200.801ZM323.491 198.098L360.465 200.145L364.281 173.207L323.674 171.758L323.491 198.098ZM265.135 168.6L320.364 162.287L371.173 165.436L383.673 125.88L261.619 136.382L265.135 168.6ZM206.732 119.98L251.831 117.786L242.827 82.5027L204.916 87.1146L206.732 119.98ZM205.677 77.1199L240.055 72.6189L241.502 42.6022L196.755 49.6476L205.677 77.1199ZM267.318 113.582L320.297 106.876L313.39 28.3453L261.848 37.388L267.318 113.582ZM329.35 104.937L388.824 100.308L398.306 46.6582L324.368 27.1435L329.35 104.937ZM151.892 68.3479C137.501 72.3965 128.873 87.5808 132.62 102.263C136.366 116.945 151.069 125.566 165.46 121.517C179.85 117.469 188.479 102.284 184.732 87.6019C180.986 72.9197 166.282 64.2994 151.892 68.3479ZM372.766 198.794L417.959 185.381C419.215 185.008 420.103 183.849 420.154 182.516C420.219 180.824 418.934 179.418 417.283 179.375L374.215 178.265L372.766 198.794Z" fill="#F2F6FB"/>
<path d="M211.023 195.925C211.896 197.513 211.359 199.533 209.822 200.435C208.286 201.338 206.333 200.782 205.46 199.194L199.769 188.842C198.896 187.254 199.433 185.235 200.97 184.333C202.506 183.43 204.459 183.986 205.332 185.574L211.023 195.925ZM199.641 175.222C200.514 176.81 199.976 178.829 198.44 179.732C196.904 180.634 194.951 180.079 194.078 178.49L188.387 168.139C187.514 166.551 188.051 164.532 189.587 163.629C191.124 162.727 193.077 163.283 193.95 164.871L199.641 175.222ZM188.219 154.521C189.101 156.103 188.575 158.126 187.043 159.037C185.512 159.949 183.556 159.405 182.674 157.822L176.926 147.504C176.044 145.921 176.57 143.899 178.101 142.987C179.633 142.076 181.589 142.62 182.471 144.203L188.219 154.521ZM174.951 139.19C173.193 139.371 171.626 138.045 171.45 136.227C171.275 134.409 172.559 132.789 174.317 132.608L185.778 131.428C187.537 131.247 189.104 132.573 189.279 134.391C189.455 136.208 188.171 137.829 186.413 138.01L174.951 139.19ZM197.874 136.829C196.116 137.01 194.549 135.684 194.373 133.866C194.198 132.049 195.482 130.428 197.24 130.247L208.701 129.067C210.46 128.886 212.027 130.212 212.202 132.03C212.378 133.848 211.094 135.468 209.336 135.649L197.874 136.829ZM220.797 134.468C219.039 134.65 217.472 133.323 217.296 131.505C217.121 129.688 218.405 128.067 220.163 127.886L231.624 126.706C233.383 126.525 234.95 127.851 235.125 129.669C235.3 131.487 234.017 133.107 232.259 133.288L220.797 134.468ZM243.72 132.108C241.962 132.289 240.394 130.962 240.219 129.144C240.044 127.327 241.328 125.706 243.086 125.525L254.547 124.345C256.306 124.164 257.873 125.491 258.048 127.308C258.223 129.126 256.94 130.746 255.182 130.927L243.72 132.108ZM266.643 129.747C264.885 129.928 263.318 128.601 263.142 126.783C262.967 124.966 264.25 123.346 266.009 123.165L277.47 121.984C279.229 121.803 280.796 123.13 280.971 124.947C281.146 126.765 279.863 128.385 278.105 128.566L266.643 129.747ZM289.566 127.386C287.808 127.567 286.24 126.24 286.065 124.423C285.89 122.605 287.174 120.985 288.932 120.804L300.393 119.623C302.152 119.442 303.719 120.769 303.894 122.586C304.069 124.404 302.786 126.024 301.028 126.205L289.566 127.386ZM312.489 125.025C310.731 125.206 309.163 123.879 308.988 122.062C308.813 120.244 310.097 118.624 311.855 118.443L323.316 117.262C325.075 117.081 326.642 118.408 326.817 120.225C326.992 122.043 325.709 123.663 323.951 123.844L312.489 125.025ZM335.35 122.89C333.588 123.025 332.053 121.658 331.923 119.836C331.792 118.014 333.115 116.428 334.877 116.293L346.363 115.412C348.126 115.277 349.66 116.644 349.791 118.466C349.922 120.288 348.599 121.874 346.837 122.009L335.35 122.89ZM358.323 121.128C356.561 121.263 355.027 119.896 354.896 118.075C354.765 116.253 356.088 114.667 357.85 114.532L369.337 113.651C371.099 113.516 372.633 114.883 372.764 116.705C372.895 118.526 371.572 120.112 369.81 120.247L358.323 121.128ZM381.297 119.367C379.535 119.502 378 118.135 377.869 116.313C377.739 114.491 379.061 112.905 380.823 112.77L384.353 112.499L384.43 112.495L392.399 112.083C394.164 111.991 395.666 113.396 395.754 115.221C395.843 117.045 394.483 118.598 392.719 118.689L384.749 119.101L384.826 119.096L381.297 119.367ZM398.939 105.637C398.621 107.434 396.955 108.624 395.216 108.296C393.478 107.967 392.327 106.244 392.645 104.447L394.717 92.735C395.035 90.9382 396.702 89.748 398.44 90.0766C400.178 90.4053 401.329 92.1282 401.011 93.925L398.939 105.637ZM403.084 82.2128C402.766 84.0096 401.099 85.1998 399.361 84.8712C397.623 84.5426 396.471 82.8196 396.789 81.0228L398.861 69.3106C399.179 67.5138 400.846 66.3236 402.584 66.6522C404.322 66.9808 405.474 68.7038 405.156 70.5006L403.084 82.2128ZM205.622 224.459C200.674 224.459 196.663 220.313 196.663 215.199C196.663 210.084 200.674 205.938 205.622 205.938C210.57 205.938 214.581 210.084 214.581 215.199C214.581 220.313 210.57 224.459 205.622 224.459ZM397.166 59.5324C392.218 59.5324 388.207 55.3863 388.207 50.2718C388.207 45.1573 392.218 41.0112 397.166 41.0112C402.114 41.0112 406.125 45.1573 406.125 50.2718C406.125 55.3863 402.114 59.5324 397.166 59.5324Z" fill="#D8DEED"/>
<path d="M161.841 98.1671C175.102 75.1713 181.732 59.6533 181.732 51.6132C181.732 38.695 171.514 28.2227 158.909 28.2227C146.304 28.2227 136.086 38.695 136.086 51.6132C136.086 59.6533 142.716 75.1713 155.978 98.1671H155.978C156.943 99.8407 159.038 100.389 160.657 99.391C161.143 99.091 161.55 98.6704 161.841 98.1671Z" fill="#1EA5C8"/>
<path d="M159.122 67.911C166.426 67.911 172.347 61.6918 172.347 54.0201C172.347 46.3483 166.426 40.1292 159.122 40.1292C151.819 40.1292 145.898 46.3483 145.898 54.0201C145.898 61.6918 151.819 67.911 159.122 67.911Z" fill="white"/>
</g>
<g clip-path="url(#clip1)">
<path d="M386.075 15.4376C386.075 13.4873 387.606 11.9062 389.489 11.9062H482.059C483.944 11.9062 485.473 13.4859 485.473 15.4376V162.277C485.473 164.228 483.941 165.809 482.059 165.809H389.489C387.603 165.809 386.075 164.229 386.075 162.277V15.4376Z" fill="#E1E5F0"/>
<path d="M436.261 158.768C433.301 158.768 430.901 156.291 430.901 153.235C430.901 150.18 433.301 147.703 436.261 147.703C439.221 147.703 441.621 150.18 441.621 153.235C441.621 156.291 439.221 158.768 436.261 158.768ZM435.287 23.9772C434.479 23.9772 433.825 23.3016 433.825 22.4683C433.825 21.635 434.479 20.9595 435.287 20.9595C436.094 20.9595 436.748 21.635 436.748 22.4683C436.748 23.3016 436.094 23.9772 435.287 23.9772ZM390.767 29.987C390.767 29.4997 391.148 29.1047 391.619 29.1047H479.569C480.039 29.1047 480.421 29.4967 480.421 29.987V102.748C480.421 103.235 480.04 103.63 479.569 103.63H391.619C391.148 103.63 390.767 103.238 390.767 102.748V29.987Z" fill="#F2F6FB"/>
<path fill-rule="evenodd" clip-rule="evenodd" d="M390.947 104.417C390.947 103.928 391.327 103.532 391.799 103.532H479.749C480.219 103.532 480.6 103.927 480.6 104.417V141.896C480.6 142.384 480.22 142.78 479.749 142.78H391.799C391.328 142.78 390.947 142.385 390.947 141.896V104.417ZM405.272 38.3652H466.702C470.001 38.3652 472.675 41.1293 472.675 44.539C472.675 47.9486 470.001 50.7127 466.702 50.7127H405.272C401.973 50.7127 399.299 47.9486 399.299 44.539C399.299 41.1293 401.973 38.3652 405.272 38.3652Z" fill="white"/>
<path d="M462.436 103.338V95.8409H464.153C465.44 95.8409 467.129 94.1739 467.129 92.3177C467.129 90.4615 466.079 90.3671 465.163 86.8771C464.679 85.0302 463.201 84.2059 460.73 84.4042C458.259 84.2059 456.781 85.0302 456.297 86.8771C455.381 90.3671 454.331 90.4615 454.331 92.3177C454.331 94.1739 456.02 95.8409 457.307 95.8409C458.165 95.8409 460.015 95.8409 462.857 95.8409H458.603H459.877V103.338H431.721L434.773 81.231C435.013 79.4928 436.453 78.2016 438.152 78.2016H464.471C466.269 78.2016 467.758 79.6438 467.876 81.4986L469.262 103.338H462.436ZM406.125 103.338L408.244 67.6945C408.355 65.8337 409.847 64.3831 411.651 64.3831H425.109C426.972 64.3831 428.49 65.9265 428.522 67.8515L429.1 103.338H406.125ZM423.189 72.0279C422.718 72.0279 422.336 72.4228 422.336 72.9098V77.3197C422.336 77.8068 422.718 78.2016 423.189 78.2016H425.322C425.793 78.2016 426.175 77.8068 426.175 77.3197V72.9098C426.175 72.4228 425.793 72.0279 425.322 72.0279H423.189ZM415.937 72.0279C415.466 72.0279 415.084 72.4228 415.084 72.9098V77.3197C415.084 77.8068 415.466 78.2016 415.937 78.2016H418.07C418.541 78.2016 418.923 77.8068 418.923 77.3197V72.9098C418.923 72.4228 418.541 72.0279 418.07 72.0279H415.937ZM423.189 82.1705C422.718 82.1705 422.336 82.5653 422.336 83.0524V87.4622C422.336 87.9493 422.718 88.3442 423.189 88.3442H425.322C425.793 88.3442 426.175 87.9493 426.175 87.4622V83.0524C426.175 82.5653 425.793 82.1705 425.322 82.1705H423.189ZM415.937 82.1705C415.466 82.1705 415.084 82.5653 415.084 83.0524V87.4622C415.084 87.9493 415.466 88.3442 415.937 88.3442H418.07C418.541 88.3442 418.923 87.9493 418.923 87.4622V83.0524C418.923 82.5653 418.541 82.1705 418.07 82.1705H415.937ZM423.189 92.313C422.718 92.313 422.336 92.7079 422.336 93.195V97.6048C422.336 98.0919 422.718 98.4868 423.189 98.4868H425.322C425.793 98.4868 426.175 98.0919 426.175 97.6048V93.195C426.175 92.7079 425.793 92.313 425.322 92.313H423.189ZM415.937 92.313C415.466 92.313 415.084 92.7079 415.084 93.195V97.6048C415.084 98.0919 415.466 98.4868 415.937 98.4868H418.07C418.541 98.4868 418.923 98.0919 418.923 97.6048V93.195C418.923 92.7079 418.541 92.313 418.07 92.313H415.937ZM446.225 82.1705C445.754 82.1705 445.372 82.5653 445.372 83.0524V87.4622C445.372 87.9493 445.754 88.3442 446.225 88.3442H448.358C448.83 88.3442 449.212 87.9493 449.212 87.4622V83.0524C449.212 82.5653 448.83 82.1705 448.358 82.1705H446.225ZM438.973 82.1705C438.502 82.1705 438.12 82.5653 438.12 83.0524V87.4622C438.12 87.9493 438.502 88.3442 438.973 88.3442H441.106C441.577 88.3442 441.959 87.9493 441.959 87.4622V83.0524C441.959 82.5653 441.577 82.1705 441.106 82.1705H438.973ZM446.225 92.313C445.754 92.313 445.372 92.7079 445.372 93.195V97.6048C445.372 98.0919 445.754 98.4868 446.225 98.4868H448.358C448.83 98.4868 449.212 98.0919 449.212 97.6048V93.195C449.212 92.7079 448.83 92.313 448.358 92.313H446.225ZM438.973 92.313C438.502 92.313 438.12 92.7079 438.12 93.195V97.6048C438.12 98.0919 438.502 98.4868 438.973 98.4868H441.106C441.577 98.4868 441.959 98.0919 441.959 97.6048V93.195C441.959 92.7079 441.577 92.313 441.106 92.313H438.973Z" fill="#36BDB2"/>
<path d="M405.272 115.978H464.569C465.747 115.978 466.702 116.965 466.702 118.183C466.702 119.401 465.747 120.388 464.569 120.388H405.272C404.094 120.388 403.139 119.401 403.139 118.183C403.139 116.965 404.094 115.978 405.272 115.978ZM405.272 124.798H464.569C465.747 124.798 466.702 125.785 466.702 127.002C466.702 128.22 465.747 129.207 464.569 129.207H405.272C404.094 129.207 403.139 128.22 403.139 127.002C403.139 125.785 404.094 124.798 405.272 124.798ZM403.992 41.4521H411.244V42.775H403.992V41.4521ZM403.992 44.098H411.244V45.4209H403.992V44.098ZM403.992 46.7438H411.244V48.0668H403.992V46.7438ZM465.112 45.1315L467.556 47.695L466.725 48.5078L464.29 45.9533C463.765 46.3128 463.125 46.5233 462.436 46.5233C460.681 46.5233 459.237 45.1548 459.237 43.4365C459.237 41.7182 460.681 40.3496 462.436 40.3496C464.192 40.3496 465.636 41.7182 465.636 43.4365C465.636 44.0649 465.443 44.6465 465.112 45.1315ZM462.436 45.2004C463.508 45.2004 464.356 44.3972 464.356 43.4365C464.356 42.4758 463.508 41.6726 462.436 41.6726C461.364 41.6726 460.517 42.4758 460.517 43.4365C460.517 44.3972 461.364 45.2004 462.436 45.2004Z" fill="#E1E5F0"/>
</g>
<path d="M64.7457 467.595L56.8631 469.45C56.8631 469.45 54.927 475.869 54.0281 479.293C53.959 479.507 53.8207 480.077 53.6824 480.434C53.5441 481.076 53.475 481.575 53.475 482.217C53.6824 485.284 54.7887 487.923 57.4163 489.278C60.3204 490.847 62.6022 492.203 65.7137 489.278C68.8252 486.354 69.3784 484.499 68.0646 479.364C66.7509 474.371 64.7457 467.595 64.7457 467.595Z" fill="#4B44BE"/>
<path d="M110.52 478.294C105.196 476.582 102.914 469.806 102.914 469.806L92.2654 469.236C92.2654 469.236 92.058 476.154 91.7122 479.863C91.3665 484.856 92.2654 487.067 95.4461 486.782C99.7331 486.425 117.296 487.994 120.062 486.211C123.657 483.929 115.429 479.863 110.52 478.294Z" fill="#4B44BE"/>
<path d="M48.2891 312.179C48.2891 312.179 44.2786 317.814 43.034 333.077C41.7894 348.341 44.5552 377.298 45.869 382.933C47.1827 388.568 52.4377 440.849 53.7515 444.7C55.0653 448.552 56.863 469.379 56.863 469.379L65.368 469.593C65.368 469.593 67.8572 442.418 67.8572 435.214C67.8572 428.01 71.3144 359.895 71.107 354.902C70.8996 349.91 72.0059 351.55 72.0059 351.55C72.0059 351.55 79.4736 376.015 81.6862 380.08C83.8989 384.146 87.8402 392.063 87.8402 392.063C87.8402 392.063 88.7391 417.597 89.7762 432.361C90.8134 447.125 91.9889 470.377 91.9889 470.377L103.398 470.163C103.398 470.163 106.025 431.291 106.025 423.089C106.025 414.887 108.445 395.272 108.445 392.99C108.445 390.708 100.978 350.908 100.978 350.908L95.7919 312.108L48.2891 312.179Z" fill="url(#paint0_linear)"/>
<path d="M52.9221 205.263C52.9221 205.263 57.9005 185.364 61.7727 183.937C77.0538 178.089 78.575 168.246 85.0747 196.419C91.5743 224.592 109.621 257.259 117.296 266.959C127.876 280.226 126.977 288.713 123.174 289.569C119.371 290.425 100.217 295.632 98.6963 296.06C97.1751 296.559 101.808 310.253 95.3773 308.399C91.7817 307.329 91.5052 291.067 95.9996 290.282C97.8665 289.997 119.163 285.575 119.025 284.291C118.887 283.007 102.43 259.399 102.43 259.399L91.7817 254.263L65.4374 239.642L52.8529 233.151L51.5392 211.54L50.6403 207.332L52.9221 205.263Z" fill="url(#paint1_linear)"/>
<path d="M49.5336 231.867C49.5336 231.867 49.6719 233.436 46.0764 238.714C43.9329 241.924 49.3262 239.642 44.7626 247.701C37.5023 260.468 33.4228 274.091 32.8696 282.579C32.5931 287.786 37.0183 286.787 38.8161 288.428C39.8533 289.355 43.1723 287.786 43.9329 286.645L45.4541 283.934C45.8689 283.292 49.9485 277.158 50.0177 276.445C50.3634 274.02 52.6452 263.892 53.4058 260.254C54.0281 257.187 59.2831 250.126 63.5701 235.719C64.8148 231.297 63.5702 229.442 63.8467 227.374C64.7456 220.812 55.7567 220.883 54.9961 223.166C54.7887 223.736 48.0124 251.41 47.6667 255.119C47.5284 256.332 49.9485 267.316 51.8154 270.311C53.6824 273.307 55.7567 275.447 55.7567 278.157C55.7567 280.796 54.5813 291.637 52.6452 296.416C50.7091 301.195 48.0124 312.322 48.0124 312.322L95.7227 312.108C95.7227 312.108 93.9941 290.995 94.6855 283.649C94.6855 283.649 96.6908 259.827 97.9354 257.473C99.1108 255.119 111.903 276.588 115.153 282.008C116.466 284.291 98.3503 288.285 96.8291 290.068C95.3079 291.851 98.3502 296.844 98.3502 296.844C98.3502 296.844 130.019 292.85 129.881 287.857C129.673 282.864 111.834 244.492 105.403 237.217C98.9725 229.941 97.3131 230.227 91.9889 232.153C86.5956 234.15 84.0372 235.933 76.846 237.145C71.591 238.072 66.1977 237.074 61.4958 234.292C58.8683 232.723 49.5336 231.867 49.5336 231.867Z" fill="url(#paint2_linear)"/>
<path d="M43.0342 250.84C43.5873 250.055 44.1405 249.271 44.5554 248.343C44.9703 247.559 45.2468 247.06 45.4543 246.703C47.8052 242.637 53.0603 233.365 53.9592 229.3C54.4432 227.731 54.7889 226.019 55.0655 224.378C55.2729 223.237 55.2729 222.096 55.2038 221.026C54.9272 218.958 50.7785 210.185 51.4008 209.4C51.4699 209.257 52.0231 206.832 52.7837 207.617C53.6826 208.544 59.5599 211.896 59.9748 212.467C61.0811 214.535 61.98 216.747 62.6715 219.029C63.0863 220.384 63.4321 224.307 63.5704 224.664C64.815 227.945 63.3629 230.37 63.5012 232.081C63.5704 232.723 63.5704 235.148 63.847 235.434C64.6767 236.076 65.783 236.575 66.267 236.004C66.7511 235.362 66.5436 233.651 66.6128 231.939C66.8894 223.023 65.299 214.821 63.2938 210.541C61.2886 206.262 56.5175 197.774 59.7674 192.924C63.0172 188.074 69.7243 184.222 70.0009 183.01C70.2774 181.797 70.4849 187.717 74.0805 189.786C77.676 191.854 82.6545 197.489 82.6545 198.63C82.6545 199.771 83.83 203.837 80.4418 210.827C77.0537 217.816 74.357 226.732 79.0589 233.294C83.7608 239.856 95.6538 249.199 96.4836 251.268C97.3133 253.336 96.4835 262.68 96.207 267.886C95.9304 273.093 105.818 258.971 105.472 252.124C105.127 245.276 106.302 242.352 99.5951 231.939C92.8189 221.525 88.4627 203.551 88.2553 199.201C88.0478 194.85 86.1117 182.796 82.0322 179.301C77.9526 175.806 77.6069 172.525 66.3362 173.666C66.3362 173.666 56.8633 174.023 54.1666 183.581C51.4699 193.138 51.0551 206.547 50.9168 208.616C50.7785 210.827 51.7465 224.378 50.571 228.586C49.3956 232.795 43.7948 241.853 42.7576 245.562" fill="url(#paint3_linear)"/>
<path opacity="0.07" d="M61.0811 469.45C61.1503 469.664 61.1503 469.807 61.1503 470.021C61.2194 471.376 61.1503 474.728 59.6982 476.939C57.9005 479.792 62.1183 485.997 62.1183 487.495C62.1183 488.993 60.1823 490.42 58.7994 489.992C57.4165 489.564 51.6774 486.211 53.9592 479.079C54.8581 476.155 55.4112 473.658 55.8952 472.089C56.1718 471.305 56.4484 470.52 56.6558 469.664C56.725 469.307 56.725 468.951 56.725 468.523C56.6559 468.024 56.6558 467.453 56.5867 466.954C56.3101 464.172 44.9703 377.798 44.5554 374.517C44.2097 371.593 42.5502 353.262 42.6885 342.563C42.5502 341.636 42.5502 340.709 42.6193 339.853C42.6193 339.639 42.7576 338.569 42.6885 338.141C42.7576 337.143 42.8268 336.144 42.8959 335.217C42.6885 334.432 42.8268 334.432 42.8959 333.149C42.9651 331.865 42.8959 331.151 43.0342 330.296C44.1405 323.02 46.768 314.818 48.0127 312.464L48.3584 311.181C48.3584 311.181 50.4328 301.48 51.4008 299.412C52.2305 297.558 55.8952 279.298 55.5495 277.23C55.2729 275.233 51.4008 270.026 51.4008 270.026L51.954 267.245C51.954 267.245 53.1294 263.179 54.374 259.755C55.3421 257.116 58.3845 250.127 59.6291 247.06C61.6343 242.138 62.6023 240.212 63.0172 236.932C63.2938 234.435 63.5704 235.505 64.6075 236.004C66.1287 236.646 66.1979 235.79 66.267 234.292C66.3362 229.514 66.1288 224.735 65.7139 219.956C65.2299 216.176 61.496 210.185 59.8365 206.476C58.8685 204.55 58.177 202.553 57.5547 200.413C56.8633 197.204 56.9324 193.637 59.8365 190.642C62.3949 188.003 70.07 182.511 70.07 182.511C70.07 182.511 66.5436 189.929 67.9957 192.425C70.3466 196.276 69.1712 201.198 69.1712 202.981C69.1712 204.693 67.3042 209.044 68.4797 213.394C70.4158 221.097 67.0276 225.448 68.2722 230.655C69.0328 233.865 69.5169 234.934 68.7563 237.716C67.9957 240.569 60.2514 262.038 64.5384 274.52C68.7563 287.001 70.7615 295.846 63.9161 303.406C57.1398 310.895 63.3629 317.6 63.5012 322.949C63.7778 336.002 57.6239 334.575 57.2782 342.706C56.9324 350.837 58.6611 356.686 58.7994 360.894C59.0759 374.874 58.9376 377.655 58.177 383.147C57.4856 388.639 53.8209 399.053 57.9004 419.451C61.98 439.922 61.3577 441.705 60.9429 453.331C60.6663 464.885 61.0811 469.45 61.0811 469.45Z" fill="black"/>
<path d="M49.672 201.126C51.2623 199.985 52.9909 198.915 54.7887 197.988C57.0013 197.061 58.0385 200.484 58.5917 201.982C59.214 203.551 62.1873 212.966 62.3256 213.751C62.3947 214.036 61.9107 213.965 60.3895 215.248C60.1821 215.462 59.7672 215.32 59.2831 214.179C59.0757 213.537 58.246 212.11 57.3471 211.611C57.0014 211.397 51.4006 209.4 51.3314 209.97C51.2623 210.541 52.6452 214.036 53.3367 216.033C53.4058 216.247 54.3739 218.244 54.1664 218.601C54.0973 218.672 54.2355 218.601 54.2355 218.601C54.2355 218.601 53.1984 218.957 52.9218 218.601C52.6452 218.244 49.7411 208.687 48.7039 205.049C48.4965 204.264 47.9433 203.123 48.4965 202.624L49.672 201.126Z" fill="#3D3D3D"/>
<path d="M375.208 353.71C377.658 350.44 379.243 346.65 379.819 342.562C380.468 337.583 382.197 331.34 386.592 327.029C393.292 320.489 394.229 292.841 394.373 282.585C394.445 278.721 395.022 274.856 396.102 271.214C398.12 264.748 402.155 255.755 410.08 251.445C418.15 247.06 443.944 245.202 451.437 251.668C466.711 264.823 464.622 282.139 464.838 284.889C465.991 297.821 465.27 307.26 471.683 315.435C478.095 323.61 485.3 333.495 483.427 343.528C481.554 353.562 498.341 368.426 479.969 374.595C461.596 380.763 442.791 385.074 422.329 383.364C404.172 381.878 379.387 378.831 374.487 366.419C372.182 360.325 373.407 356.237 375.208 353.71Z" fill="#E9EDFA"/>
<path d="M379.82 352.149C380.684 350.886 381.765 349.028 383.711 347.987C385.656 346.947 389.619 344.123 409 352.298C436.667 364.041 459.435 349.697 461.597 349.399C463.758 349.102 483.284 342.785 482.779 356.014C482.275 369.243 459.147 376.378 452.158 376.675C445.169 376.972 416.061 379.797 401.723 375.56C387.385 371.324 381.909 365.601 380.901 364.189C379.82 362.629 376.217 357.426 379.82 352.149Z" fill="#BAC5F4"/>
<path d="M381.693 448.172H383.062C385.511 448.247 387.601 446.166 387.601 443.639C387.601 443.564 387.601 443.565 387.601 443.49L387.457 436.801C387.457 436.058 386.952 435.389 386.304 435.092L385.872 434.943C384.935 434.572 384.43 433.457 384.863 432.491C385.007 432.119 385.223 431.822 385.511 431.673C385.799 431.45 386.16 431.302 386.448 431.153C389.474 429.964 395.886 426.173 412.746 424.39C421.969 423.424 426.652 423.126 429.101 423.052C430.11 422.978 430.903 422.16 430.903 421.045C430.903 420.897 430.903 420.748 430.831 420.599C430.615 419.707 429.75 419.113 428.813 419.262C422.905 420.005 401.867 422.606 394.95 424.315C390.915 425.356 387.024 427.065 383.422 429.295C382.053 430.187 381.116 431.673 380.972 433.383C380.9 433.977 380.612 434.497 380.18 434.795C379.459 435.315 378.739 435.686 377.946 435.984C376.793 436.355 376.793 440.443 377.081 443.862C377.153 446.166 379.171 448.098 381.693 448.172Z" fill="#A2B7ED"/>
<path d="M483.787 448.172H482.779C480.113 448.247 477.879 446.017 477.879 443.267C477.879 443.193 477.879 443.119 477.879 443.044L478.023 436.727C478.023 435.984 478.456 435.315 479.176 435.018L479.609 434.869C480.545 434.497 481.05 433.383 480.617 432.416C480.473 432.119 480.257 431.822 479.969 431.599C479.681 431.376 479.32 431.227 479.032 431.079C476.006 429.89 469.666 426.099 452.95 424.315C443.872 423.349 439.189 423.052 436.811 422.978C435.802 422.903 435.01 422.086 435.01 420.971C435.01 420.822 435.01 420.674 435.082 420.525C435.298 419.633 436.162 419.039 437.099 419.187C443.007 419.931 463.83 422.532 470.602 424.241C474.637 425.282 478.456 426.991 481.986 429.221C483.355 430.112 484.292 431.599 484.436 433.308C484.508 433.903 484.796 434.423 485.228 434.72C485.877 435.166 486.597 435.612 487.39 435.91C488.543 436.281 488.471 440.443 488.255 443.862C488.183 446.166 486.237 448.098 483.787 448.172Z" fill="#A2B7ED"/>
<path d="M430.038 386.411L429.894 442.672C429.894 443.415 429.318 444.01 428.597 444.01H428.309C427.589 444.01 427.012 444.604 427.012 445.348C427.012 445.348 427.012 445.348 427.012 445.422L427.228 454.935C427.3 457.239 429.102 459.171 431.407 459.171L434.289 459.246C436.667 459.32 438.684 457.313 438.684 454.861C438.684 454.786 438.684 454.712 438.684 454.563L438.324 445.348C438.324 444.604 437.748 444.084 437.027 444.084C436.307 444.084 435.73 443.49 435.73 442.746L435.874 385.073C435.874 384.33 435.298 383.736 434.577 383.736H431.263C430.543 383.736 429.966 384.33 429.966 385.073C429.966 385.073 429.966 385.073 429.966 385.148L430.038 386.411Z" fill="#A2B7ED"/>
<path d="M430.111 427.214C430.111 427.214 386.016 445.497 379.099 451.591C372.183 457.686 371.03 461.476 371.318 463.111C371.318 463.26 371.606 463.408 371.894 463.483C373.624 464.003 374.776 465.638 374.704 467.422L374.56 477.009C374.56 478.496 373.335 479.685 371.967 479.685H366.995C365.554 479.685 364.401 478.496 364.329 477.009L364.185 467.496C364.113 465.489 365.554 463.706 367.499 463.409H367.571C367.571 463.409 369.301 456.199 371.967 453.747C374.632 451.294 379.316 445.794 397.76 437.47C416.205 429.147 430.039 423.944 430.039 423.944L430.111 427.214Z" fill="#BAC5F4"/>
<path d="M435.659 426.545C435.659 427.14 436.019 427.734 436.523 427.957C442.575 430.633 477.736 446.315 483.788 451.889C490.345 457.983 491.425 461.773 491.137 463.408C491.065 463.78 490.128 463.929 489.192 464.003C488.399 464.077 487.823 464.746 487.823 465.564L487.967 475.746C487.967 478.124 489.912 480.056 492.218 480.056H493.443C495.748 480.056 497.622 478.124 497.694 475.746L497.838 465.638C497.838 464.895 497.333 464.226 496.613 464.152L495.532 464.003C494.956 463.929 494.523 463.483 494.379 462.888C493.875 460.881 492.434 456.051 490.417 454.118C487.895 451.666 483.428 446.166 465.992 437.842C452.59 431.525 441.855 426.991 437.604 425.207C436.883 424.91 436.019 425.207 435.731 425.951C435.731 426.174 435.731 426.322 435.659 426.545Z" fill="#BAC5F4"/>
<path d="M457.419 367.229C454.952 363.021 453.055 361.944 446.983 361.749C440.911 361.553 432.847 361.651 432.847 361.651L432.752 370.556C432.752 370.556 439.393 374.568 442.998 376.526C443.188 376.624 443.757 377.015 444.231 377.211C444.896 377.504 445.56 377.798 446.224 377.896C449.734 378.679 452.96 378.287 455.237 375.939C457.703 373.296 459.885 371.437 457.419 367.229Z" fill="#4B44BE"/>
<path d="M411.691 359.302C411.501 359.498 410.932 359.889 410.552 360.183C410.078 360.672 409.603 361.259 409.224 361.748C407.232 364.88 406.378 368.012 407.611 371.143C409.034 374.568 409.983 377.309 414.632 376.526C419.28 375.743 421.083 374.275 423.455 368.599C425.827 362.923 428.768 355.094 428.768 355.094L420.798 351.669C420.893 351.767 414.821 356.66 411.691 359.302Z" fill="#4B44BE"/>
<path d="M433.416 362.042C433.416 362.042 433.511 370.948 432.088 371.242C430.665 371.437 411.216 368.501 403.437 368.11C395.657 367.718 378.106 362.532 369.473 352.452C361.978 343.742 363.116 334.152 368.714 334.152C374.216 334.152 379.339 329.356 393.38 336.207C407.421 343.057 422.316 344.232 430.665 343.547C439.014 342.861 462.352 338.36 464.25 336.99C466.052 335.62 474.875 331.705 487.019 333.075C499.258 334.445 493.47 344.427 490.909 348.244C487.304 353.626 478.765 359.302 471.65 359.596C464.25 359.792 433.416 362.042 433.416 362.042Z" fill="url(#paint4_linear)"/>
<path d="M418.902 205.463C414.822 207.029 409.604 227.972 409.604 227.972L409.509 227.874L408.94 230.81L408.276 234.626L409.604 257.428L422.886 264.279L453.435 272.793L461.879 285.123C461.879 285.123 480.758 304.989 480.853 306.359C480.948 307.729 460.55 314.678 458.558 314.971C453.909 315.656 488.538 306.947 477.438 293.05C472.694 287.08 465.768 269.172 452.012 257.33C444.043 250.48 446.32 231.005 443.473 218.675C439.963 203.213 437.781 198.613 434.271 198.613C431.14 198.613 426.681 202.528 418.902 205.463Z" fill="url(#paint5_linear)"/>
<path d="M462.162 255.275C455.806 249.208 453.624 247.74 448.026 249.795C442.429 251.85 439.678 253.709 432.088 254.981C427.439 255.862 422.506 255.177 418.142 253.22L402.393 254.884C400.401 254.59 378.011 297.943 377.442 306.946C377.062 312.427 389.301 321.038 392.716 321.821C394.044 322.213 396.511 308.512 397.365 307.338L392.242 305.674C393.19 303.325 396.226 297.454 398.219 294.322C398.883 293.343 403.721 285.025 404.385 281.894C404.48 282.187 405.239 288.157 405.903 290.114C407.137 293.637 408.844 295.692 408.844 298.53C408.844 301.368 408.465 312.622 406.472 317.613C404.48 322.604 401.539 334.348 401.539 334.348L451.821 334.054C451.821 334.054 450.019 311.741 450.778 304.108C450.778 304.108 450.019 300.977 451.442 296.573C453.908 289.233 454.573 278.273 454.193 276.511C453.529 273.771 468.993 296.671 472.314 302.445C473.737 304.891 454.573 309.099 453.055 310.959C451.347 312.916 454.667 318.103 454.667 318.103C454.667 318.103 488.062 313.894 487.873 308.61C487.778 303.521 469.562 262.321 462.162 255.275Z" fill="url(#paint6_linear)"/>
<path d="M422.981 193.133C422.981 193.133 413.683 193.524 410.932 203.604C408.18 213.684 407.896 227.776 407.801 230.027C407.706 232.376 408.75 245.881 403.722 251.557C399.357 256.45 401.16 261.147 400.022 265.062L399.547 271.521C399.642 272.303 400.211 272.891 400.875 273.184C401.539 273.38 403.911 272.303 404.291 272.108C410.078 269.661 410.078 267.802 412.26 265.845C414.063 264.279 419.091 260.56 420.609 259.092C422.127 257.624 423.17 256.352 423.265 254.493C423.55 245.098 421.937 236.486 419.945 231.886C417.952 227.287 414.157 219.556 417.288 214.369C420.419 209.182 426.301 204.094 426.586 202.821C426.87 201.549 427.06 207.812 430.57 209.965C434.081 212.118 437.022 215.152 438.16 218.186C439.109 220.632 440.247 224.938 436.927 232.278C433.606 239.617 430.95 249.012 435.598 255.96C440.247 262.909 450.209 270.444 451.822 273.967C453.624 277.882 451.916 286.983 451.537 292.561C451.157 298.041 461.973 282.97 461.688 275.729C461.309 268.487 462.542 265.453 455.806 254.395C449.165 243.336 444.801 224.449 444.611 219.849C444.422 215.25 442.429 202.528 438.445 198.907C434.934 195.775 434.175 192.839 427.06 192.839C425.732 192.937 424.309 192.937 422.981 193.133Z" fill="url(#paint7_linear)"/>
<path opacity="0.07" d="M401.634 346.287L448.785 346.58C448.785 346.58 443.283 351.082 440.626 351.571C437.97 352.06 426.585 357.932 422.316 355.681C419.375 353.92 401.634 346.287 401.634 346.287Z" fill="black"/>
<path opacity="0.07" d="M427.914 237.074C427.914 237.074 432.278 238.248 434.176 235.606C438.255 229.636 434.555 238.639 434.555 238.639C434.555 238.639 433.322 242.162 433.417 243.924C433.512 245.588 428.673 237.269 427.914 237.074Z" fill="black"/>
<path opacity="0.07" d="M410.363 267.899C409.794 268.584 409.035 269.171 408.655 270.933C407.991 273.771 407.232 276.903 405.335 279.838C404.196 281.6 404.86 288.157 406.663 292.365C407.232 293.539 408.845 296.671 408.845 297.454L408.75 303.521H413.778C413.778 303.521 418.142 304.01 417.194 300.292C416.435 297.062 412.26 284.927 415.107 282.285C420.324 277.392 413.778 267.508 416.15 264.376C418.237 261.636 421.273 259.679 421.273 258.798C421.273 258.407 420.514 259.581 419.945 259.972C418.901 260.755 418.332 261.342 417.478 261.93C416.53 262.615 415.107 263.691 414.158 264.376C412.735 265.355 411.501 266.529 410.363 267.899Z" fill="black"/>
<path d="M390.629 306.947C390.629 306.947 390.629 303.815 393.665 303.619C396.701 303.522 460.929 303.619 460.929 303.619C460.929 303.619 463.775 304.011 463.87 306.36C463.965 308.708 463.965 343.743 463.965 343.743C463.965 343.743 463.965 346.483 461.214 346.483C458.463 346.581 393.001 346.581 393.001 346.581C393.001 346.581 390.534 345.896 390.629 343.449C390.534 340.807 390.629 306.947 390.629 306.947Z" fill="#3D3D3D"/>
<path d="M427.44 327.888C428.959 327.888 430.191 326.618 430.191 325.05C430.191 323.483 428.959 322.212 427.44 322.212C425.92 322.212 424.689 323.483 424.689 325.05C424.689 326.618 425.92 327.888 427.44 327.888Z" fill="url(#paint8_linear)"/>
<path d="M281.915 479.987C281.814 477.042 281.406 474.097 280.896 471.257L269.68 471.468C269.68 471.468 269.374 477.778 264.276 478.83L262.135 479.461C259.484 479.987 256.323 480.934 254.487 482.301C254.385 481.775 254.385 481.354 254.385 480.934C254.182 477.778 253.57 474.623 252.652 471.573L240.111 472.099C240.111 472.099 240.722 478.199 235.726 479.251L233.585 479.882C228.793 480.828 222.471 483.142 225.122 486.508C227.161 489.032 248.676 490.189 252.448 489.453C253.876 489.243 254.487 488.086 254.589 486.718C259.178 488.822 277.123 489.243 280.59 488.506C283.241 487.77 282.017 483.353 281.915 479.987Z" fill="#4B44BE"/>
<path d="M228.996 388.168C228.486 392.691 231.851 416.145 231.851 420.562C231.851 424.98 239.906 472.835 239.906 472.835L252.754 472.204C252.754 472.204 250.205 401.841 250.408 398.475C250.612 395.11 264.683 354.196 264.683 354.196C264.683 354.196 265.703 365.029 265.703 368.5C265.703 371.971 269.577 471.468 269.577 471.468H280.691L296.598 324.957L296.292 322.117L237.663 313.703C237.765 313.598 229.506 383.751 228.996 388.168Z" fill="url(#paint9_linear)"/>
<path d="M308.018 294.14L296.394 326.534L294.355 342.416L304.143 333.581C304.653 333.055 305.774 330.636 306.284 329.269L312.096 312.441L316.379 285.516C316.379 285.516 309.853 273.315 302.104 259.011L308.018 294.14ZM302.308 259.011L301.798 256.171L300.574 255.961L302.308 259.011ZM262.95 177.289C261.115 177.079 259.279 177.079 257.444 177.394C256.934 177.499 255.201 181.075 253.977 183.705C252.448 186.965 252.142 192.224 252.142 195.59C252.142 199.797 256.22 204.53 261.319 207.895C263.562 209.368 262.134 217.046 261.013 217.782C259.891 218.518 238.377 234.926 238.377 234.926L222.879 226.196L180.564 188.753L178.423 186.019C178.423 186.019 173.732 165.299 171.897 164.352C168.838 162.88 166.595 168.138 163.74 172.556C162.109 175.08 162.109 182.443 164.046 184.651L172.305 194.959L217.576 233.243L230.118 237.345L244.393 245.338L300.472 255.645C290.48 237.029 279.264 216.099 278.244 213.89C277.327 212.102 277.225 210.104 277.633 208.211C278.346 205.581 279.366 203.057 280.59 200.638C281.507 199.376 281.915 196.957 282.221 195.484C282.425 194.117 282.425 194.538 281.303 195.695C280.997 196.01 279.978 196.01 279.468 193.907C278.958 191.803 272.84 188.753 269.781 186.019C269.781 186.019 266.621 185.177 263.358 184.02" fill="url(#paint10_linear)"/>
<path d="M243.17 219.464C239.601 219.78 237.46 219.149 233.177 218.202C229.711 217.361 223.389 215.994 221.248 215.047C211.867 211.261 179.953 188.227 178.627 186.018C177.913 184.756 172.407 191.698 172 194.853C171.898 195.695 181.584 206.423 185.561 211.156C186.274 211.997 192.29 218.518 194.431 220.201C199.224 223.987 211.051 231.665 214.314 233.769C216.761 235.451 224.714 239.658 233.687 242.498C239.703 244.391 241.334 245.864 243.17 250.176C245.209 254.699 236.338 307.392 236.338 307.392C236.338 307.392 236.134 317.068 237.97 318.015C239.601 318.856 258.362 324.536 262.95 326.324C266.213 326.85 269.578 327.165 272.943 327.376L296.7 324.01C296.7 324.01 296.394 277.627 296.802 269.949C297.21 262.377 296.292 258.169 297.618 260.168C299.045 262.482 305.265 283.307 305.265 286.883C305.265 290.459 298.434 321.17 298.434 321.17L307.508 326.324C307.508 326.324 319.744 292.562 320.457 288.04C321.171 283.517 321.375 281.203 319.336 276.786C317.297 272.368 306.081 231.875 306.081 231.875C306.081 231.875 304.959 226.932 296.7 224.408C288.441 221.884 280.488 214.837 271.311 220.306C261.829 225.88 257.954 220.096 257.954 220.096C257.954 220.096 248.574 220.621 243.272 219.78" fill="url(#paint11_linear)"/>
<path d="M279.978 167.613C280.998 168.454 284.26 171.505 285.382 172.451C286.708 173.503 287.421 174.975 288.543 176.869C289.155 177.815 289.97 180.55 290.48 181.707C292.825 187.912 290.582 190.647 288.747 195.064C286.198 201.164 280.488 202.111 279.978 202.952C275.39 201.48 274.88 202.006 272.841 202.637C270.292 200.849 269.17 198.535 267.844 197.273C268.66 196.011 266.213 184.757 264.378 190.647C263.562 188.017 261.217 182.338 260.197 181.602C259.178 180.865 258.056 179.919 258.158 179.498C258.668 176.974 254.691 177.394 258.26 174.765C261.115 172.662 262.237 167.718 265.907 167.297C268.252 167.087 271.209 166.772 273.554 166.456C275.186 166.246 276.613 166.982 277.939 167.192C278.754 167.297 279.366 167.508 280.08 167.929" fill="url(#paint12_linear)"/>
<g opacity="0.07">
<path d="M266.722 346.938C265.091 351.671 258.973 361.032 254.996 366.501C251.02 371.971 238.58 383.75 239.396 398.16C240.212 412.569 248.573 449.275 248.573 452.641C248.573 456.007 245.412 471.573 243.067 476.411C240.722 481.249 241.13 486.192 242.251 486.192C242.761 486.192 244.698 486.929 247.451 486.192C249.491 485.666 252.243 487.875 253.365 487.349C254.181 487.034 254.385 484.194 254.385 484.194C254.487 483.037 254.283 481.88 253.977 480.828C253.365 479.04 252.957 477.252 252.651 475.359C252.142 461.897 251.02 430.659 251.326 428.556C251.734 424.454 248.573 403.839 251.428 393.742C254.283 383.645 266.62 346.938 266.722 346.938Z" fill="black"/>
</g>
<g opacity="0.07">
<path d="M296.496 264.48L296.394 312.23C296.394 312.23 297.618 322.327 295.884 323.484C294.253 324.536 287.625 325.483 285.688 325.483C284.362 325.483 266.009 327.691 272.535 324.326C275.39 322.853 293.743 312.23 287.931 301.818C282.119 291.405 284.77 278.153 289.053 269.108C293.335 260.063 296.598 254.068 296.598 254.068L296.496 264.48Z" fill="black"/>
</g>
<path d="M178.729 186.019L172.611 190.541C172.203 190.857 171.693 190.752 171.387 190.331C171.285 190.226 171.183 190.015 171.183 189.805L170.572 180.655L172.203 177.815C172.407 177.499 172.509 176.973 172.407 176.658L171.897 172.135C171.897 171.925 171.795 171.82 171.795 171.609L169.654 162.985C169.552 162.459 169.96 162.038 170.47 162.038L177.097 161.197C177.607 161.092 178.015 161.512 178.117 162.038V162.143L179.239 185.177C179.137 185.598 179.035 185.808 178.729 186.019Z" fill="#3D3D3D"/>
<path opacity="0.07" d="M261.319 206.948C261.319 206.948 265.601 206.107 267.743 204.424C269.884 202.741 265.092 207.685 263.562 209.578C262.033 211.471 261.319 206.948 261.319 206.948Z" fill="black"/>
<path opacity="0.07" d="M289.154 342.522C289.154 342.522 284.872 360.296 281.099 365.555C277.021 371.13 281.507 396.898 277.734 408.257C274.166 418.985 279.06 442.229 278.142 449.697C277.429 455.797 277.327 468.839 274.166 476.201C273.146 478.725 270.903 480.513 270.903 481.67C270.903 488.191 279.468 483.984 279.468 483.984L279.978 478.199L285.79 426.978L296.598 325.483L289.154 342.522Z" fill="black"/>
<defs>
<linearGradient id="paint0_linear" x1="42.7016" y1="391.247" x2="108.504" y2="391.247" gradientUnits="userSpaceOnUse">
<stop stop-color="#2C24BD"/>
<stop offset="1" stop-color="#33B2D6"/>
</linearGradient>
<linearGradient id="paint1_linear" x1="50.7074" y1="242.929" x2="125.794" y2="242.929" gradientUnits="userSpaceOnUse">
<stop stop-color="#F87B58"/>
<stop offset="0.5" stop-color="#F8C548"/>
<stop offset="1" stop-color="#F89C51"/>
</linearGradient>
<linearGradient id="paint2_linear" x1="32.8934" y1="267.01" x2="129.95" y2="267.01" gradientUnits="userSpaceOnUse">
<stop stop-color="#4B45BD"/>
<stop offset="1" stop-color="#58CAEA"/>
</linearGradient>
<linearGradient id="paint3_linear" x1="42.5076" y1="220.966" x2="105.223" y2="220.966" gradientUnits="userSpaceOnUse">
<stop stop-color="#F8C547"/>
<stop offset="1" stop-color="#F71D69"/>
</linearGradient>
<linearGradient id="paint4_linear" x1="364.147" y1="351.887" x2="494.652" y2="351.887" gradientUnits="userSpaceOnUse">
<stop stop-color="#2C24BD"/>
<stop offset="1" stop-color="#33B2D6"/>
</linearGradient>
<linearGradient id="paint5_linear" x1="408.235" y1="256.814" x2="480.851" y2="256.814" gradientUnits="userSpaceOnUse">
<stop stop-color="#F87B58"/>
<stop offset="0.5" stop-color="#F8C548"/>
<stop offset="1" stop-color="#F89C51"/>
</linearGradient>
<linearGradient id="paint6_linear" x1="377.474" y1="291.603" x2="487.952" y2="291.603" gradientUnits="userSpaceOnUse">
<stop stop-color="#4B45BD"/>
<stop offset="1" stop-color="#58CAEA"/>
</linearGradient>
<linearGradient id="paint7_linear" x1="399.824" y1="220.924" x2="454.276" y2="220.924" gradientUnits="userSpaceOnUse">
<stop stop-color="#FFAA46"/>
<stop offset="1" stop-color="#FDF64E"/>
</linearGradient>
<linearGradient id="paint8_linear" x1="430.198" y1="325.015" x2="424.651" y2="325.015" gradientUnits="userSpaceOnUse">
<stop stop-color="#F7F8FC"/>
<stop offset="1" stop-color="white"/>
</linearGradient>
<linearGradient id="paint9_linear" x1="228.925" y1="393.274" x2="296.658" y2="393.274" gradientUnits="userSpaceOnUse">
<stop stop-color="#2C24BD"/>
<stop offset="1" stop-color="#33B2D6"/>
</linearGradient>
<linearGradient id="paint10_linear" x1="162.684" y1="253.319" x2="316.5" y2="253.319" gradientUnits="userSpaceOnUse">
<stop stop-color="#F87B58"/>
<stop offset="0.63" stop-color="#F89453"/>
<stop offset="0.81" stop-color="#F8C548"/>
<stop offset="0.94" stop-color="#F89952"/>
<stop offset="1" stop-color="#F89C51"/>
</linearGradient>
<linearGradient id="paint11_linear" x1="172.054" y1="256.57" x2="321.064" y2="256.57" gradientUnits="userSpaceOnUse">
<stop stop-color="#4B45BD"/>
<stop offset="1" stop-color="#58CAEA"/>
</linearGradient>
<linearGradient id="paint12_linear" x1="304.623" y1="203.052" x2="243.436" y2="171.934" gradientUnits="userSpaceOnUse">
<stop stop-color="#FF6969"/>
<stop offset="1" stop-color="#FBFF2B"/>
</linearGradient>
<clipPath id="clip0">
<rect width="438.12" height="296.78" fill="white"/>
</clipPath>
<clipPath id="clip1">
<rect width="180.453" height="153.902" fill="white" transform="translate(345.547 11.9062)"/>
</clipPath>
</defs>
</svg>
