<svg width="82" height="79" viewBox="0 0 82 79" fill="none" xmlns="http://www.w3.org/2000/svg">
<path d="M78.8085 18.3765C85.9899 25.9199 78.8087 33.4675 78.8086 44.4861C78.8085 55.2856 64.6598 60.0584 59.2613 69.6017C54.8738 77.3577 41.8673 81.5154 30.6675 77.3577C19.4678 73.2197 10.6534 61.7649 6.6368 48.6887C2.62036 35.6125 -0.197464 16.7998 13.9084 14.2474C25.8446 12.0874 36.1779 4.29937 48.6309 5.84369C61.1038 7.38801 71.6271 10.8528 78.8085 18.3765Z" fill="#36BDB2" fill-opacity="0.8"/>
<path d="M66.5954 12.666C73.6757 20.1809 80.7705 29.8102 72.998 38.9528C66.5954 46.4838 64.438 60.8719 53.7685 66.7497C43.0989 72.6077 30.1739 75.5664 19.1317 71.4243C8.08957 67.302 -1.7096 56.1666 0.251807 44.3321C2.39122 31.4217 -4.02745 18.6429 6.67027 12.666C16.2985 7.28669 24.5646 -1.35788 36.8424 0.180609C49.1398 1.71909 59.5151 5.17083 66.5954 12.666Z" fill="#1890FF" fill-opacity="0.8"/>
</svg>
