<svg width="36" height="36" viewBox="0 0 36 36" fill="none" xmlns="http://www.w3.org/2000/svg">
<path fill-rule="evenodd" clip-rule="evenodd" d="M24.1444 0.139057C26.0508 -0.405647 28.0379 0.698278 28.5826 2.60474C28.6742 2.92549 28.7207 3.25744 28.7207 3.59102V24.9879C28.7207 26.5908 27.6581 27.9995 26.1169 28.4399L14.6118 31.727H32.3108V17.3668H28.7209V13.7767H32.3108V10.1865H28.7207V6.5964H32.3108C34.2936 6.5964 35.9009 8.20374 35.9009 10.1865V31.727C35.9009 33.7098 34.2936 35.3171 32.3108 35.3171H3.59009C1.60734 35.3171 0 33.7098 0 31.727H0.0479326C0.0160684 31.534 0 31.3385 0 31.1423V9.74546C0 8.14255 1.06259 6.73385 2.60382 6.2935L24.1444 0.139057ZM3.5901 9.74554V31.1424L25.1307 24.988V3.59109L3.5901 9.74554ZM21.5407 13.7766C21.5407 14.768 20.737 15.5717 19.7456 15.5717C18.7542 15.5717 17.9506 14.768 17.9506 13.7766C17.9506 12.7852 18.7542 11.9816 19.7456 11.9816C20.737 11.9816 21.5407 12.7852 21.5407 13.7766Z" fill="white"/>
</svg>
